<svg width="20" height="24" viewBox="0 0 20 24" fill="none" xmlns="http://www.w3.org/2000/svg">
<path d="M3.25 13.125H9.26172V19.1367H3.25V13.125ZM11.7227 18.5039C11.0664 17.8477 10.7383 17.0508 10.7383 16.1133C10.7383 15.1758 11.0664 14.3789 11.7227 13.7227C12.3789 13.0664 13.1758 12.7383 14.1133 12.7383C15.0508 12.7383 15.8477 13.0664 16.5039 13.7227C17.1602 14.3789 17.4883 15.1758 17.4883 16.1133C17.4883 17.0508 17.1602 17.8477 16.5039 18.5039C15.8477 19.1602 15.0508 19.4883 14.1133 19.4883C13.1758 19.4883 12.3789 19.1602 11.7227 18.5039ZM10 4.51172L14.1133 11.2617H5.88672L10 4.51172Z" fill="white" fill-opacity="0.64"/>
</svg>
