<svg width="20" height="24" viewBox="0 0 20 24" fill="none" xmlns="http://www.w3.org/2000/svg">
<path d="M18.2617 9.01172C18.2617 9.82031 17.5586 10.4883 16.75 10.4883C16.6094 10.4883 16.5039 10.4883 16.3633 10.4531L13.6914 13.125C13.7266 13.2305 13.7617 13.3711 13.7617 13.5117C13.7617 14.3203 13.0586 14.9883 12.25 14.9883C11.4414 14.9883 10.7383 14.3203 10.7383 13.5117C10.7383 13.3711 10.7734 13.2305 10.8086 13.125L8.875 11.1914C8.76953 11.2266 8.62891 11.2617 8.48828 11.2617C8.34766 11.2617 8.24219 11.2266 8.10156 11.1914L4.69141 14.6016C4.72656 14.7422 4.76172 14.8477 4.76172 14.9883C4.76172 15.832 4.05859 16.5 3.25 16.5C2.44141 16.5 1.73828 15.832 1.73828 14.9883C1.73828 14.1797 2.44141 13.5117 3.25 13.5117C3.39062 13.5117 3.49609 13.5117 3.63672 13.5469L7.04688 10.1367C7.01172 10.0312 7.01172 9.89062 7.01172 9.75C7.01172 8.94141 7.67969 8.23828 8.48828 8.23828C9.33203 8.23828 10 8.94141 10 9.75C10 9.89062 10 10.0312 9.96484 10.1367L11.8633 12.0352C11.9688 12 12.1094 12 12.25 12C12.3906 12 12.5312 12 12.6367 12.0352L15.3086 9.39844C15.2734 9.25781 15.2383 9.15234 15.2383 9.01172C15.2383 8.16797 15.9414 7.5 16.75 7.5C17.5586 7.5 18.2617 8.16797 18.2617 9.01172Z" fill="white" fill-opacity="0.64"/>
</svg>
