<svg width="20" height="24" viewBox="0 0 20 24" fill="none" xmlns="http://www.w3.org/2000/svg">
<path d="M12.6367 5.98828H15.2383V7.5H4.76172V5.98828H7.36328L8.13672 5.25H11.8633L12.6367 5.98828ZM7.32812 11.8945L8.94531 13.5117L7.36328 15.0938L8.41797 16.1484L10 14.5664L11.582 16.1484L12.6367 15.0938L11.0547 13.5117L12.6367 11.8945L11.582 10.8398L10 12.457L8.41797 10.8398L7.32812 11.8945ZM5.5 17.2383V8.23828H14.5V17.2383C14.5 17.6367 14.3477 17.9883 14.043 18.293C13.7383 18.5977 13.3867 18.75 12.9883 18.75H7.01172C6.61328 18.75 6.26172 18.5977 5.95703 18.293C5.65234 17.9883 5.5 17.6367 5.5 17.2383Z" fill="white" fill-opacity="0.64"/>
</svg>
