<svg width="20" height="24" viewBox="0 0 20 24" fill="none" xmlns="http://www.w3.org/2000/svg">
<path d="M8.66406 11.0859C9.03906 11.4375 9.48438 11.6133 10 11.6133C10.5156 11.6133 10.9492 11.4375 11.3008 11.0859C11.6758 10.7109 11.8633 10.2656 11.8633 9.75C11.8633 9.23438 11.6758 8.80078 11.3008 8.44922C10.9492 8.07422 10.5156 7.88672 10 7.88672C9.48438 7.88672 9.03906 8.07422 8.66406 8.44922C8.3125 8.80078 8.13672 9.23438 8.13672 9.75C8.13672 10.2656 8.3125 10.7109 8.66406 11.0859ZM6.27344 6.05859C7.30469 5.02734 8.54688 4.51172 10 4.51172C11.4531 4.51172 12.6836 5.02734 13.6914 6.05859C14.7227 7.06641 15.2383 8.29688 15.2383 9.75C15.2383 10.4766 15.0508 11.3086 14.6758 12.2461C14.3242 13.1836 13.8906 14.0625 13.375 14.8828C12.8594 15.7031 12.3438 16.4766 11.8281 17.2031C11.3359 17.9062 10.9141 18.4688 10.5625 18.8906L10 19.4883C9.85938 19.3242 9.67188 19.1133 9.4375 18.8555C9.20312 18.5742 8.78125 18.0352 8.17188 17.2383C7.5625 16.418 7.02344 15.6328 6.55469 14.8828C6.10938 14.1094 5.69922 13.2422 5.32422 12.2812C4.94922 11.3203 4.76172 10.4766 4.76172 9.75C4.76172 8.29688 5.26562 7.06641 6.27344 6.05859Z" fill="white" fill-opacity="0.64"/>
</svg>
