<svg width="24" height="24" viewBox="0 0 24 24" fill="none" xmlns="http://www.w3.org/2000/svg">
<path d="M17.2992 4.5V7.5H20.2992V9.5H17.2992V12.5H15.2992V9.5H12.2992V7.5H15.2992V4.5H17.2992Z" fill="#E83B3B"/>
<path fill-rule="evenodd" clip-rule="evenodd" d="M21.4039 13.1425L19.4321 12.8077C19.4768 12.5444 19.5 12.2749 19.5 12C19.5 11.7251 19.4768 11.4556 19.4321 11.1923L21.4039 10.8575C21.4672 11.2307 21.5 11.6121 21.5 12C21.5 12.3879 21.4672 12.7694 21.4039 13.1425ZM13.1463 4.05764L12.9448 6.04746C12.6359 6.01619 12.3206 6 12 6C11.6794 6 11.3641 6.01619 11.0552 6.04746L10.8537 4.05764C11.2295 4.01958 11.612 4 12 4C12.388 4 12.7705 4.01958 13.1463 4.05764ZM8.61088 4.52409L9.22332 6.42801C8.61795 6.62274 8.05513 6.87801 7.54503 7.18171L6.52188 5.46323C7.16396 5.08095 7.86485 4.76406 8.61088 4.52409ZM4.71352 6.86651L6.13159 8.27685C5.71039 8.70037 5.36614 9.16211 5.10488 9.6471L3.34411 8.69858C3.70187 8.03446 4.16424 7.41879 4.71352 6.86651ZM2.59614 10.8575C2.53278 11.2306 2.5 11.6121 2.5 12C2.5 12.3879 2.53278 12.7694 2.59614 13.1425L4.56792 12.8077C4.52321 12.5444 4.5 12.2749 4.5 12C4.5 11.7251 4.52321 11.4556 4.56792 11.1923L2.59614 10.8575ZM3.34411 15.3014L5.10488 14.3529C5.36614 14.8379 5.71039 15.2996 6.13159 15.7232L4.71352 17.1335C4.16424 16.5812 3.70187 15.9655 3.34411 15.3014ZM6.52188 18.5368L7.54503 16.8183C8.05513 17.122 8.61795 17.3773 9.22332 17.572L8.61088 19.4759C7.86485 19.2359 7.16396 18.919 6.52188 18.5368ZM10.8537 19.9424L11.0552 17.9525C11.3641 17.9838 11.6794 18 12 18C12.3206 18 12.6359 17.9838 12.9448 17.9525L13.1463 19.9424C12.7705 19.9804 12.388 20 12 20C11.612 20 11.2295 19.9804 10.8537 19.9424ZM15.3891 19.4759L14.7767 17.572C15.3821 17.3773 15.9449 17.122 16.455 16.8183L17.4781 18.5368C16.836 18.919 16.1351 19.2359 15.3891 19.4759ZM19.2865 17.1335L17.8684 15.7232C18.2896 15.2996 18.6339 14.8379 18.8951 14.3529L20.6559 15.3014C20.2981 15.9655 19.8358 16.5812 19.2865 17.1335Z" fill="#E83B3B"/>
</svg>
