<svg width="24" height="24" viewBox="0 0 24 24" fill="none" xmlns="http://www.w3.org/2000/svg">
<path d="M17.51 2.54004V5.54004H20.51V7.54004H17.51V10.54H15.51V7.54004H12.51V5.54004H15.51V2.54004H17.51Z" fill="white"/>
<path d="M19.38 10.66C19.4633 11.0985 19.5068 11.5436 19.51 11.99C19.5119 13.4757 19.0732 14.9287 18.2492 16.165C17.4252 17.4013 16.2529 18.3655 14.8808 18.9354C13.5087 19.5054 11.9984 19.6555 10.541 19.3669C9.08351 19.0782 7.74443 18.3638 6.69313 17.3139C5.64184 16.264 4.92558 14.9258 4.635 13.4688C4.34441 12.0117 4.49255 10.5012 5.06067 9.12832C5.62879 7.75546 6.59136 6.58196 7.82659 5.75631C9.06181 4.93066 10.5142 4.48995 12 4.48995H12.35L12.44 2.48995H12C10.0349 2.48169 8.11509 3.07983 6.50246 4.20278C4.88983 5.32573 3.66287 6.91882 2.98895 8.76475C2.31503 10.6107 2.22696 12.6196 2.73675 14.5174C3.24654 16.4152 4.32938 18.1095 5.83755 19.3693C7.34572 20.6291 9.20581 21.3929 11.1641 21.5567C13.1223 21.7204 15.0834 21.276 16.7799 20.2842C18.4763 19.2924 19.8255 17.8014 20.6433 16.0146C21.4612 14.2278 21.708 12.2322 21.35 10.3L19.38 10.66Z" fill="white"/>
</svg>
