<svg width="24" height="24" viewBox="0 0 24 24" fill="none" xmlns="http://www.w3.org/2000/svg">
<path d="M14.4844 17.0156C14.4844 18.6562 13.1719 20.0156 11.4844 20.0156C9.84375 20.0156 8.48438 18.6562 8.48438 17.0156H10.5C10.5 17.5312 10.9688 18 11.4844 18C12.0469 18 12.5156 17.5312 12.5156 17.0156C12.5156 16.4531 12.0469 15.9844 11.4844 15.9844H2.01562V14.0156H11.4844C13.1719 14.0156 14.4844 15.3281 14.4844 17.0156ZM18.9844 6.51562C18.9844 4.54688 17.4375 3 15.5156 3C13.5469 3 12 4.54688 12 6.51562H14.0156C14.0156 5.67188 14.6719 5.01562 15.5156 5.01562C16.3125 5.01562 17.0156 5.67188 17.0156 6.51562C17.0156 7.3125 16.3125 8.01562 15.5156 8.01562H2.01562V9.98438H15.5156C17.4375 9.98438 18.9844 8.4375 18.9844 6.51562ZM18.5156 11.0156H2.01562V12.9844H18.5156C19.3125 12.9844 20.0156 13.6875 20.0156 14.4844C20.0156 15.3281 19.3125 15.9844 18.5156 15.9844V18C20.4375 18 21.9844 16.4531 21.9844 14.4844C21.9844 12.5625 20.4375 11.0156 18.5156 11.0156Z" fill="white"/>
</svg>
