<svg width="33" height="32" viewBox="0 0 33 32" fill="none" xmlns="http://www.w3.org/2000/svg">
<g clip-path="url(#clip0_3806_20671)">
<path opacity="0.4" d="M28.2492 29.9437H17.9492V18.1438C17.9492 15.7738 19.8792 13.8438 22.2492 13.8438H28.2492V16.4438H22.2492C21.3092 16.4438 20.5492 17.2038 20.5492 18.1438V27.3438H28.2492V29.9437Z" fill="#333333"/>
<path opacity="0.4" d="M14.55 29.9437H4.25V27.3438H11.95V18.1438C11.95 17.2038 11.19 16.4438 10.25 16.4438H4.25V13.8438H10.25C12.62 13.8438 14.55 15.7738 14.55 18.1438V29.9437Z" fill="#333333"/>
<path d="M23.6607 11.9542L21.2107 11.0942L22.0207 8.78422C19.4707 9.05422 17.5007 7.94422 16.2507 6.71422C15.0007 7.93422 13.0407 9.05422 10.4807 8.78422L11.2907 11.0942L8.8407 11.9542L6.2207 4.51422L8.9507 5.70422C13.0307 7.47422 15.0407 4.13422 15.1207 3.99422L16.2407 2.07422L17.3607 3.99422C17.5707 4.34422 19.5707 7.42422 23.5307 5.70422L26.2607 4.51422L23.6407 11.9542H23.6607Z" fill="#E83B3B"/>
</g>
<defs>
<clipPath id="clip0_3806_20671">
<rect width="24" height="27.88" fill="white" transform="translate(4.25 2.0625)"/>
</clipPath>
</defs>
</svg>
