<svg width="33" height="32" viewBox="0 0 33 32" fill="none" xmlns="http://www.w3.org/2000/svg">
<path d="M26.7995 13.7403H24.6495V8.21031C24.6495 6.89031 23.5795 5.82031 22.2595 5.82031H16.5295C15.3795 5.82031 14.3895 6.65031 14.1795 7.77031L12.7395 13.0003V6.67031C12.7395 5.93031 12.1395 5.32031 11.3995 5.32031C10.6595 5.32031 10.0595 5.92031 10.0595 6.67031V18.7803C9.97953 18.8703 9.90953 18.9603 9.82953 19.0503H4.10953C3.36953 19.0503 2.76953 19.6503 2.76953 20.3903C2.76953 21.1303 3.36953 21.7303 4.10953 21.7303H8.81953C8.81953 21.8003 8.79953 21.8703 8.79953 21.9403C8.79953 24.5503 10.9195 26.6703 13.5295 26.6703C15.6695 26.6703 17.4595 25.2403 18.0395 23.2903H20.0895C20.6695 25.2403 22.4595 26.6703 24.5995 26.6703C26.8995 26.6703 28.8195 25.0203 29.2395 22.8303C29.8395 22.4003 30.2395 21.6903 30.2395 20.8903V17.1503C30.2395 15.2603 28.6995 13.7203 26.8095 13.7203L26.7995 13.7403ZM24.5895 23.9903C23.4695 23.9903 22.5495 23.0703 22.5495 21.9503C22.5495 20.8303 23.4695 19.9103 24.5895 19.9103C25.7095 19.9103 26.6295 20.8303 26.6295 21.9503C26.6295 23.0703 25.7195 23.9903 24.5895 23.9903ZM18.0295 20.6103C17.5795 19.0903 16.3895 17.9003 14.8595 17.4403V16.4203H26.7895C27.1895 16.4203 27.5295 16.7603 27.5295 17.1603V18.2803C26.7195 17.6303 25.6995 17.2203 24.5795 17.2203C22.4395 17.2203 20.6495 18.6503 20.0695 20.6003H18.0195L18.0295 20.6103ZM11.4795 21.9503C11.4795 20.8303 12.3895 19.9103 13.5195 19.9103C14.6495 19.9103 15.5595 20.8303 15.5595 21.9503C15.5595 23.0703 14.6395 23.9903 13.5195 23.9903C12.3995 23.9903 11.4795 23.0703 11.4795 21.9503ZM21.9495 8.51031V13.7403H15.3095L16.7495 8.51031H21.9395H21.9495Z" fill="#333333" fill-opacity="0.4"/>
</svg>
