<svg width="33" height="32" viewBox="0 0 33 32" fill="none" xmlns="http://www.w3.org/2000/svg">
<path d="M16.7498 5.08984C10.7398 5.08984 5.83984 9.97984 5.83984 15.9998C5.83984 22.0198 10.7298 26.9098 16.7498 26.9098C22.7698 26.9098 27.6598 22.0198 27.6598 15.9998C27.6598 9.97984 22.7698 5.08984 16.7498 5.08984ZM16.7498 7.77984C19.2998 7.77984 21.5798 8.94984 23.0898 10.7798L18.6998 13.3198C18.1498 12.9198 17.4798 12.6798 16.7498 12.6798C16.0198 12.6798 15.3498 12.9198 14.7998 13.3198L10.4098 10.7898C11.9198 8.95984 14.1998 7.78984 16.7498 7.78984V7.77984ZM8.52984 15.9998C8.52984 14.9798 8.71984 14.0198 9.05984 13.1198L13.4498 15.6598C13.4398 15.7798 13.4198 15.8898 13.4198 16.0098C13.4198 17.3698 14.2398 18.5298 15.3998 19.0498V24.1098C11.5098 23.4698 8.52984 20.0898 8.52984 16.0098V15.9998ZM18.0898 24.0998V19.0398C19.2598 18.5198 20.0698 17.3598 20.0698 15.9998C20.0698 15.8798 20.0498 15.7698 20.0398 15.6498L24.4298 13.1098C24.7698 14.0098 24.9598 14.9798 24.9598 15.9898C24.9598 20.0598 21.9798 23.4398 18.0898 24.0898V24.0998Z" fill="#333333" fill-opacity="0.4"/>
</svg>
