<svg width="33" height="32" viewBox="0 0 33 32" fill="none" xmlns="http://www.w3.org/2000/svg">
<path d="M16.5 8C17.9375 8 19.1875 9.1875 19.1875 10.6875C19.1875 12.125 17.9375 13.3125 16.5 13.3125C15.0625 13.3125 13.8125 12.125 13.8125 10.6875C13.8125 9.1875 15.0625 8 16.5 8ZM16.5 21.3125C20.125 21.3125 24.25 23.0625 24.5 24H8.5C8.8125 23.0625 12.9375 21.3125 16.5 21.3125ZM16.5 5.3125C13.5625 5.3125 11.1875 7.75 11.1875 10.6875C11.1875 13.625 13.5625 16 16.5 16C19.4375 16 21.8125 13.625 21.8125 10.6875C21.8125 7.75 19.4375 5.3125 16.5 5.3125ZM16.5 18.6875C12.9375 18.6875 5.8125 20.4375 5.8125 24V26.6875H27.1875V24C27.1875 20.4375 20.0625 18.6875 16.5 18.6875Z" fill="#333333" fill-opacity="0.4"/>
</svg>
