<svg width="33" height="32" viewBox="0 0 33 32" fill="none" xmlns="http://www.w3.org/2000/svg">
<path fill-rule="evenodd" clip-rule="evenodd" d="M6.80503 13.8756L5.18003 11.4381C2.43003 15.6256 2.30503 21.0006 4.80503 25.3131C5.30503 26.1881 6.18003 26.6881 7.11753 26.6881H25.6175C26.555 26.6881 27.43 26.1256 27.93 25.3131C30.93 20.0006 29.93 13.3131 25.4925 9.06311C21.055 4.81311 14.305 4.18811 9.11753 7.50061L11.6175 9.12561C15.805 7.00061 20.8675 7.93811 24.1175 11.3756C27.3675 14.8131 27.93 19.9381 25.6175 24.0006H7.11753C5.36753 20.8756 5.24253 17.1256 6.80503 13.8756Z" fill="#333333" fill-opacity="0.4"/>
<path fill-rule="evenodd" clip-rule="evenodd" d="M16.3672 21.3125C17.0547 21.3125 17.7422 21.0625 18.2422 20.5625C18.7422 20.0625 19.0547 19.375 19.0547 18.6875C19.0547 17.9375 18.7422 17.25 18.2422 16.75L6.92969 9.25L14.4922 20.5625C14.9922 21.0625 15.6797 21.3125 16.3672 21.3125Z" fill="#356AD1"/>
</svg>
