<svg width="33" height="32" viewBox="0 0 33 32" fill="none" xmlns="http://www.w3.org/2000/svg">
<path fill-rule="evenodd" clip-rule="evenodd" d="M25.8629 13.8756L27.4879 11.4381C30.2379 15.6256 30.3629 21.0006 27.8629 25.3131C27.3629 26.1881 26.4879 26.6881 25.5504 26.6881H7.05043C6.11293 26.6881 5.23793 26.1256 4.73793 25.3131C1.73793 20.0006 2.73793 13.3131 7.17543 9.06311C11.6129 4.81311 18.3629 4.18811 23.5504 7.50061L21.0504 9.12561C16.8629 7.00061 11.8004 7.93811 8.55043 11.3756C5.30043 14.8131 4.73793 19.9381 7.05043 24.0006H25.5504C27.3004 20.8756 27.4254 17.1256 25.8629 13.8756Z" fill="#333333" fill-opacity="0.4"/>
<path fill-rule="evenodd" clip-rule="evenodd" d="M16.3008 21.3125C15.6133 21.3125 14.9258 21.0625 14.4258 20.5625C13.9258 20.0625 13.6133 19.375 13.6133 18.6875C13.6133 17.9375 13.9258 17.25 14.4258 16.75L25.7383 9.25L18.1758 20.5625C17.6758 21.0625 16.9883 21.3125 16.3008 21.3125Z" fill="#E83B3B"/>
</svg>
