<svg width="33" height="32" viewBox="0 0 33 32" fill="none" xmlns="http://www.w3.org/2000/svg">
<path d="M16.0965 21.3008C16.7965 21.3008 17.4965 21.0008 17.9965 20.5008C18.4965 20.0008 18.7965 19.4008 18.7965 18.6008L16.0965 5.30078L13.3965 18.6008C13.3965 19.3008 13.6965 20.0008 14.1965 20.5008C14.6965 21.0008 15.3965 21.3008 16.0965 21.3008Z" fill="#333333" fill-opacity="0.64"/>
<path d="M25.2961 9.10078C23.4961 7.40078 21.2961 6.30078 19.0961 5.80078L19.6961 8.70078C21.2961 9.30078 22.7961 10.2008 23.9961 11.5008C27.1961 14.9008 27.7961 20.1008 25.4961 24.1008H16.1961H6.79609C4.49609 20.0008 4.99609 14.9008 8.29609 11.5008C9.49609 10.2008 10.9961 9.30078 12.4961 8.80078L13.0961 5.90078C10.8961 6.30078 8.69609 7.40078 6.99609 9.10078C2.49609 13.3008 1.49609 20.0008 4.49609 25.3008C4.99609 26.1008 5.89609 26.7008 6.79609 26.7008H16.0961H25.3961C26.2961 26.7008 27.1961 26.1008 27.6961 25.3008C30.6961 20.0008 29.6961 13.3008 25.2961 9.10078Z" fill="#333333" fill-opacity="0.4"/>
</svg>
