<svg width="33" height="32" viewBox="0 0 33 32" fill="none" xmlns="http://www.w3.org/2000/svg">
<path d="M16.8996 8L26.9621 25.3125H6.83711L16.8996 8ZM4.52461 24C3.52461 25.75 4.83711 28 6.83711 28H26.9621C28.9621 28 30.2746 25.75 29.2746 24L19.2121 6.625C18.1496 4.875 15.6496 4.875 14.5871 6.625L4.52461 24ZM15.5871 14.6875V17.3125C15.5871 18.0625 16.1496 18.6875 16.8996 18.6875C17.6496 18.6875 18.2121 18.0625 18.2121 17.3125V14.6875C18.2121 13.9375 17.6496 13.3125 16.8996 13.3125C16.1496 13.3125 15.5871 13.9375 15.5871 14.6875ZM15.5871 21.3125H18.2121V24H15.5871V21.3125Z" fill="#E83B3B"/>
</svg>
