<svg width="16" height="16" viewBox="0 0 16 16" fill="none" xmlns="http://www.w3.org/2000/svg">
<path d="M4.2 6.1C5.2 5.1 6.5 4.6 8 4.6C9.5 4.6 10.8 5.1 11.8 6.1L10.7 7.2C10.4 6.9 10 6.6 9.4 6.4C8.9 6.2 8.4 6.1 8 6.1C7.6 6.1 7.1 6.2 6.5 6.4C6 6.6 5.6 6.9 5.3 7.2L4.2 6.1ZM2 4C3.7 2.4 5.6 1.5 8 1.5C10.3 1.5 12.3 2.3 14 4L12.9 5.1C11.5 3.8 9.9 3.1 8 3.1C6.1 3.1 4.5 3.8 3.1 5.1L2 4Z" fill="white"/>
<path d="M8.0002 13.2992C8.44202 13.2992 8.8002 12.941 8.8002 12.4992C8.8002 12.0574 8.44202 11.6992 8.0002 11.6992C7.55837 11.6992 7.2002 12.0574 7.2002 12.4992C7.2002 12.941 7.55837 13.2992 8.0002 13.2992Z" fill="white"/>
<path d="M11.8996 14.4004H10.4996V10.8004C10.4996 10.5004 10.2996 10.3004 10.1996 10.3004H5.79961C5.69961 10.3004 5.49961 10.5004 5.49961 10.8004V14.5004H4.09961V10.8004C4.09961 9.80039 4.89961 8.90039 5.79961 8.90039H10.2996C11.1996 8.90039 11.9996 9.80039 11.9996 10.8004V14.4004H11.8996Z" fill="white"/>
</svg>
