<svg width="24" height="24" viewBox="0 0 24 24" fill="none" xmlns="http://www.w3.org/2000/svg">
<circle cx="12" cy="12" r="11.75" fill="#029A11" stroke="white" stroke-width="0.5"/>
<path d="M9.1875 14.8125C8.8125 14.4583 8.52083 14.0417 8.3125 13.5625C8.10417 13.0833 8 12.5625 8 12C8 11.4375 8.10417 10.9167 8.3125 10.4375C8.52083 9.95833 8.8125 9.54167 9.1875 9.1875L10.125 10.125C9.875 10.3542 9.67708 10.6354 9.53125 10.9688C9.40625 11.2812 9.34375 11.625 9.34375 12C9.34375 12.375 9.40625 12.7292 9.53125 13.0625C9.67708 13.375 9.875 13.6458 10.125 13.875L9.1875 14.8125ZM14.8125 14.8125C15.1875 14.4583 15.4792 14.0417 15.6875 13.5625C15.8958 13.0833 16 12.5625 16 12C16 11.4375 15.8958 10.9167 15.6875 10.4375C15.4792 9.95833 15.1875 9.54167 14.8125 9.1875L13.875 10.125C14.125 10.3542 14.3125 10.6354 14.4375 10.9688C14.5833 11.2812 14.6562 11.625 14.6562 12C14.6562 12.375 14.5833 12.7292 14.4375 13.0625C14.3125 13.375 14.125 13.6458 13.875 13.875L14.8125 14.8125ZM12 10.6562C11.625 10.6562 11.3021 10.7917 11.0312 11.0625C10.7812 11.3125 10.6562 11.625 10.6562 12C10.6562 12.375 10.7812 12.6979 11.0312 12.9688C11.3021 13.2188 11.625 13.3438 12 13.3438C12.375 13.3438 12.6875 13.2188 12.9375 12.9688C13.2083 12.6979 13.3438 12.375 13.3438 12C13.3438 11.625 13.2083 11.3125 12.9375 11.0625C12.6875 10.7917 12.375 10.6562 12 10.6562ZM17.3438 12C17.3438 12.7292 17.1979 13.4167 16.9062 14.0625C16.6354 14.7083 16.2604 15.2812 15.7812 15.7812L16.7188 16.7188C17.3229 16.1146 17.7917 15.4062 18.125 14.5938C18.4792 13.7812 18.6562 12.9167 18.6562 12C18.6562 11.0833 18.4792 10.2188 18.125 9.40625C17.7917 8.59375 17.3229 7.88542 16.7188 7.28125L15.7812 8.21875C16.2604 8.71875 16.6354 9.29167 16.9062 9.9375C17.1979 10.5833 17.3438 11.2708 17.3438 12ZM8.21875 8.21875L7.28125 7.28125C6.67708 7.88542 6.19792 8.59375 5.84375 9.40625C5.51042 10.2188 5.34375 11.0833 5.34375 12C5.34375 12.9167 5.51042 13.7812 5.84375 14.5938C6.19792 15.4062 6.67708 16.1146 7.28125 16.7188L8.21875 15.7812C7.73958 15.2812 7.35417 14.7083 7.0625 14.0625C6.79167 13.4167 6.65625 12.7292 6.65625 12C6.65625 11.2708 6.79167 10.5833 7.0625 9.9375C7.35417 9.29167 7.73958 8.71875 8.21875 8.21875Z" fill="white"/>
</svg>
