<svg xmlns="http://www.w3.org/2000/svg" width="18" height="18" viewBox="0 0 18 18">
<g>
	<path class="st0" d="M7.5,14.4L7.5,14.4c-2.9-0.8-4.8-3.3-4.8-6.2c0-3.5,2.9-6.4,6.4-6.4s6.4,2.9,6.4,6.4c0,2.9-1.9,5.4-4.7,6.2
		h-0.1L9,16L7.5,14.4z" fill="#DB0000" />
	<path class="st1" d="M9,2.2c3.3,0,6,2.7,6,6c0,2.7-1.8,5.1-4.5,5.8l-0.2,0.1l-0.1,0.1L9,15.4l-1.2-1.2l-0.1-0.1L7.5,14
		C4.8,13.3,3,11,3,8.2C3,4.9,5.7,2.2,9,2.2 M9,1.5c-3.7,0-6.8,3-6.8,6.8c0,3.1,2.1,5.8,5,6.5L9,16.5l1.7-1.7c2.9-0.8,5-3.4,5-6.5
		C15.8,4.5,12.7,1.5,9,1.5L9,1.5z" fill="#840000" />
</g>
<g>
	<path class="st2" d="M9,3.9c-2.3,0-4.2,1.9-4.2,4.2s1.9,4.2,4.2,4.2s4.2-1.9,4.2-4.2S11.3,3.9,9,3.9z M12.1,6.9l-1.2,0.5
		c-0.2-0.6-0.7-1-1.3-1.2L10.2,5C11.1,5.3,11.8,6,12.1,6.9z M9,9.4c-0.7,0-1.3-0.6-1.3-1.3S8.2,6.9,9,6.9s1.3,0.6,1.3,1.3
		S9.7,9.4,9,9.4z M7.7,5l0.5,1.2C7.6,6.4,7.2,6.8,7,7.4L5.8,6.9C6.1,6,6.8,5.3,7.7,5z M5.8,9.4L7,8.9c0.2,0.6,0.7,1,1.3,1.3
		l-0.5,1.2C6.8,11,6.1,10.3,5.8,9.4z M10.2,11.3l-0.5-1.2c0.6-0.2,1-0.7,1.3-1.3l1.2,0.5C11.8,10.3,11.1,11,10.2,11.3z" fill="#FFFFFF" />
</g>
</svg>
